# xmcd
#
# Track frame offsets:
#       150
#       19350
#       30600
#       48525
#       62775
#       85950
#       107550
#       123750
#       138225
#       174975
#       192300
#       211275
#       228675
#       247125
#       267975
#       288675
#
# Disc length: 4116 seconds
#
# Revision: 0
# Processed by: cddbd v1.4PL0 Copyright (c) Steve Scherf et al.
# Submitted via: WhereIsIt 3.26
#
DISCID=ef101210
DTITLE=desert island collection
DYEAR=1900
DGENRE=
TTITLE0=talking heads - burnig down the house
TTITLE1=the backbeat band - money
TTITLE2=roxy music - same old scene
TTITLE3=iggy pop - on the edge of the night
TTITLE4=mike oldfield - shadow on the wall
TTITLE5=simple minds - alive and kicking
TTITLE6=maxi priest - wild world
TTITLE7=band - i shall be released
TTITLE8=cockney rebel - cavaliers
TTITLE9=talk talk - dum dum girl
TTITLE10=stephen duffy - natalie
TTITLE11=colourfield - castles in the air
TTITLE12=the specials - ghost town
TTITLE13=ultravox - vienna
TTITLE14=ryuichi sakamoto - heartbeat
TTITLE15=enigma - sadness
EXTD=
EXTT0=
EXTT1=
EXTT2=
EXTT3=
EXTT4=
EXTT5=
EXTT6=
EXTT7=
EXTT8=
EXTT9=
EXTT10=
EXTT11=
EXTT12=
EXTT13=
EXTT14=
EXTT15=
PLAYORDER=
